<?xml version="1.0" encoding="utf-8"?>
<!-- Generator: Adobe Illustrator 15.0.0, SVG Export Plug-In . SVG Version: 6.00 Build 0)  -->
<!DOCTYPE svg PUBLIC "-//W3C//DTD SVG 1.1//EN" "http://www.w3.org/Graphics/SVG/1.1/DTD/svg11.dtd">
<svg version="1.1" id="Layer_1" xmlns="http://www.w3.org/2000/svg" xmlns:xlink="http://www.w3.org/1999/xlink" x="0px" y="0px"
	 width="216px" height="216px" viewBox="288 288 216 216" enable-background="new 288 288 216 216" xml:space="preserve">
<g id="Layer_2">
	<path fill="#231F20" stroke="#000000" stroke-width="0.25" stroke-miterlimit="10" d="M364.658,312.449
		c-2.223,0.352,0.885,5.357,0.885,5.357s2.694,3.379,4.02,2.781c1.326-0.599,0.498,0.299-1.741-3.636
		C365.584,313.015,366.88,312.097,364.658,312.449z"/>
	<path fill="#231F20" stroke="#000000" stroke-width="0.25" stroke-miterlimit="10" d="M384.049,333.996
		c0.34-0.851,0.049-6.803,0.049-6.803s0.484-1.801,1.696-2.15c1.211-0.351,10.854-3.651,10.854-3.651s0.97-0.8,1.696,1.15
		s0.278,7.34,0.581,8.353c0.146,0.375,7.56,2.751,8.335,3.602c1.32,0.6,3.161-3.688,6.299-6.402c0.848-0.625,0.921-0.5,1.356-0.25
		c0.196,0.112,1.515,2.226,3.24,3.071c2.854,1.243,3.98,3.931,3.98,3.931s0.242,1.1-0.098,1.551
		c-0.339,0.45-5.317,3.826-5.281,3.951c1.187,2.125,6.178,3.614,8.286,8.953c1.369,0.463,7.05-1.812,7.172-1.5
		c1.211,1.713,0.508,11.079,0.678,12.354c-1.381,0.013-4.748,1.25-4.748,1.25s-2.12,9.791-5.961,13.604
		c0.582,2.163,7.136,4.852,7.317,5.452c0.327,1.188-7.184,7.665-7.607,7.603c-2.362,0.2-3.901-3.602-4.604-3.501
		s-7.22,8.053-9.062,8.703c0.533,2.651,1.454,7.89,1.212,8.302c-0.242,0.413-12.453,4.015-13.374,3.802
		c-1.029-1.638-0.436-6.603-0.436-6.603s-12.599,1.426-16.426-3.101c-1.43,0.375-3.792,7.428-4.361,7.603
		c-1.655-0.75-7.607-4.435-7.801-4.852c0.064-2.259,2.98-6.635,2.81-7.202c-0.694-1.225-6.872-2.708-10.321-9.304
		c-0.727-0.573-5.645,1.761-6.638,1.401c-0.994-0.36-0.921-10.127-0.824-10.654c0.097-0.526,7.898-3.251,7.898-3.251
		s-1.066-6.052,5.185-13.505c-2.56-0.474-4.248-1.582-4.604-2.101c-0.355-0.519,3.942-11.044,4.41-11.204
		c0.468-0.16,5.766,3.151,5.766,3.151S376.054,338.897,384.049,333.996z M394.128,380.695c11.307-2.568,23.55-9.97,18.328-23.673
		c-3.671-11.469-18.361-13.474-30.285-2.032C368.866,374.626,377.75,383.129,394.128,380.695z"/>
	<path fill="#231F20" stroke="#000000" stroke-width="0.25" stroke-miterlimit="10" d="M415.497,311.363
		c-0.993-0.976,1.163-2.201,3.053-4.452c1.89-2.251,3.586-5.277,4.481-4.202c0.896,1.075-0.678,2.401-2.786,4.352
		C418.138,309.012,416.49,312.338,415.497,311.363z"/>
	<path fill="#231F20" stroke="#000000" stroke-width="0.25" stroke-miterlimit="10" d="M442.438,329.469
		c-0.363-0.775,4.821-4.901,4.821-4.901s4.53-4.126,6.154-2.901c1.623,1.225-3.74,3.576-4.991,4.401
		C447.171,326.894,442.802,330.245,442.438,329.469z"/>
	<path fill="#231F20" stroke="#000000" stroke-width="0.25" stroke-miterlimit="10" d="M443.685,371.49
		c1.2-1.042,6.576,0.916,10.161,1.922c2.957,0.7,8.507,3.951,7.394,5.011c-3.079-0.593-4.228-1.617-8.299-3.323
		C450.156,373.951,444.016,374.723,443.685,371.49z"/>
	<path fill="#231F20" stroke="#000000" stroke-width="0.25" stroke-miterlimit="10" d="M335.503,357.488
		c1.768-0.823,2.378,0.5,5.225,2.196c1.909,1.082,6.148,0.743,5.82,3.084c-0.375,0.549-5.413-0.84-6.617-1.26
		S334.643,359.733,335.503,357.488z"/>
	<path fill="#231F20" stroke="#000000" stroke-width="0.25" stroke-miterlimit="10" d="M378.412,406.916
		c2.086,0.574,2.326,2.307,6.978,2.44c3.925,0.366,26.031-0.79,26.264,0.861c0.626,3.23-11.081,0.383-26.982,1.148
		C380.684,411.39,376.233,408.566,378.412,406.916z"/>
	<path fill="#231F20" stroke="#000000" stroke-width="0.25" stroke-miterlimit="10" d="M377.646,413.975
		c0.928-2.01,1.638,1.983,7.024,2.56c7.244,1.941,20.473-2.061,23.435-0.12c0.203,2.178-8.422,2.728-20.676,2.656
		C384.728,418.858,378.444,419.191,377.646,413.975z"/>
	<path fill="#231F20" stroke="#000000" stroke-width="0.25" stroke-miterlimit="10" d="M378.46,422.428
		c0.469-1.768,0.646,1.1,9.514,2.067c8.867,0.967,20.335-1.435,20.464-0.317c1.147,2.984-15.36,2.352-17.605,2.401
		C388.587,426.629,378.734,426.612,378.46,422.428z"/>
	<path fill="#231F20" stroke="#000000" stroke-width="0.25" stroke-miterlimit="10" d="M381.835,430.547
		c3.408-1.117,17.751-0.767,22.807-0.333c-3.473,13.003-7.155,16.271-13.036,16.861C385.787,447.66,381.497,430.848,381.835,430.547
		z"/>
</g>
<g id="Font" display="none">
	<text transform="matrix(1 0 0 1 262.1543 713.2812)" display="inline" font-family="'BauhausModern-Regular'" font-size="72">DoLab</text>
	
		<text transform="matrix(1 0 0 1 262.1543 713.2812)" display="inline" fill="none" stroke="#231F20" stroke-miterlimit="10" font-family="'BauhausModern-Regular'" font-size="72">DoLab</text>
	<text transform="matrix(1 0 0 1 485.2793 713.2812)" display="inline" font-family="'MyriadPro-Regular'" font-size="72">™</text>
	
		<text transform="matrix(1 0 0 1 485.2793 713.2812)" display="inline" fill="none" stroke="#231F20" stroke-miterlimit="10" font-family="'MyriadPro-Regular'" font-size="72">™</text>
	<text transform="matrix(1 0 0 1 284.9492 737.8125)" display="inline" font-family="'MyriadPro-Regular'" font-size="21">Learn. Create. Repair. Do.</text>
</g>
<g id="Text_Outline_TM" display="none">
	<g display="inline">
		<path stroke="#231F20" stroke-width="1.7506" stroke-miterlimit="10" d="M166.885,620.314h41.469
			c13.025,0.084,24.139,4.746,33.339,13.991c9.202,9.243,13.803,20.376,13.803,33.401s-4.601,24.159-13.803,33.401
			c-9.201,9.245-20.314,13.949-33.339,14.117h-41.469V620.314L166.885,620.314z M178.734,703.379h29.243
			c9.832,0,18.233-3.484,25.209-10.462c6.975-6.974,10.462-15.379,10.462-25.209c0-9.832-3.487-18.214-10.462-25.146
			c-6.976-6.933-15.377-10.399-25.209-10.399h-29.243V703.379z"/>
		<path stroke="#231F20" stroke-width="1.7506" stroke-miterlimit="10" d="M297.342,715.229c-8.741,0-16.156-3.067-22.247-9.202
			c-6.094-6.133-9.139-13.528-9.139-22.185c0-8.654,3.045-16.072,9.139-22.247c6.091-6.177,13.506-9.265,22.247-9.265
			c8.653,0,16.027,3.088,22.121,9.265c6.092,6.175,9.139,13.593,9.139,22.247c0,8.655-3.047,16.052-9.139,22.185
			C313.369,712.16,305.996,715.229,297.342,715.229z M283.54,697.581c3.823,3.78,8.423,5.672,13.803,5.672
			c5.376,0,9.978-1.892,13.802-5.672c3.822-3.782,5.735-8.36,5.735-13.739c0-5.377-1.913-9.958-5.735-13.74
			c-3.824-3.778-8.425-5.67-13.802-5.67c-5.464,0-10.084,1.892-13.866,5.67c-3.781,3.782-5.672,8.363-5.672,13.74
			C277.805,689.221,279.715,693.799,283.54,697.581z"/>
		<path stroke="#231F20" stroke-width="1.7506" stroke-miterlimit="10" d="M397.296,703.379v11.85h-26.471
			c-8.656,0-16.071-3.047-22.247-9.14c-6.177-6.091-9.266-13.507-9.266-22.247v-63.148h12.102v63.148
			c0,5.462,1.89,10.083,5.671,13.865c3.782,3.781,8.361,5.672,13.739,5.672H397.296z"/>
		<path stroke="#231F20" stroke-width="1.7506" stroke-miterlimit="10" d="M471.03,683.715v31.639h-11.848v-6.808
			c-5.883,4.539-12.438,6.808-19.664,6.808c-8.654,0-16.069-3.089-22.247-9.265c-6.175-6.177-9.265-13.633-9.265-22.374
			c0-8.737,3.09-16.196,9.265-22.374c6.178-6.174,13.593-9.264,22.247-9.264s16.072,3.09,22.247,9.264
			C467.943,667.519,471.03,674.979,471.03,683.715z M425.594,697.581c3.821,3.865,8.464,5.798,13.926,5.798
			c5.464,0,10.104-1.933,13.929-5.798c3.823-3.864,5.735-8.487,5.735-13.866c0-5.376-1.934-10-5.798-13.864
			c-3.866-3.863-8.489-5.799-13.866-5.799c-5.379,0-10,1.936-13.864,5.799c-3.864,3.864-5.797,8.488-5.797,13.864
			C419.857,689.094,421.767,693.717,425.594,697.581z"/>
		<path stroke="#231F20" stroke-width="1.7506" stroke-miterlimit="10" d="M483.635,620.818l11.85-0.126v38.064
			c6.051-4.621,12.604-6.932,19.663-6.932c8.738-0.084,16.195,2.941,22.372,9.074c6.178,6.136,9.307,13.528,9.393,22.185
			c0.081,8.741-2.943,16.24-9.076,22.499c-6.135,6.262-13.53,9.435-22.185,9.517c-8.655,0.086-16.094-2.939-22.312-9.074
			c-6.22-6.133-9.37-13.569-9.452-22.312L483.635,620.818z M515.271,663.8c-5.464,0.086-10.104,2.062-13.928,5.924
			c-3.825,3.867-5.692,8.488-5.608,13.865c0.083,5.379,2.058,10.001,5.926,13.864c3.863,3.868,8.483,5.759,13.864,5.674
			c5.377-0.083,9.998-2.079,13.864-5.987c3.863-3.908,5.755-8.551,5.67-13.929c-0.083-5.46-2.06-10.083-5.924-13.865
			C525.271,665.564,520.649,663.719,515.271,663.8z"/>
		<path stroke="#231F20" stroke-width="1.7506" stroke-miterlimit="10" d="M583.844,630.265v5.673h-10.966v28.615h-6.808v-28.615
			h-10.842v-5.673H583.844z M620.904,664.553l-1.261-20.17c-0.126-2.646-0.126-5.925-0.252-9.581h-0.379
			c-0.883,3.026-2.016,7.062-2.898,10.211l-6.178,19.035h-7.06l-6.176-19.539c-0.63-2.521-1.64-6.681-2.396-9.707h-0.378
			c0,3.152-0.126,6.432-0.25,9.581l-1.262,20.17h-6.555l2.521-34.288h10.21l5.926,16.767c0.884,2.646,1.388,5.168,2.27,8.696h0.126
			c0.883-3.023,1.639-6.051,2.396-8.444l5.925-17.019h9.834l2.646,34.288H620.904z"/>
	</g>
	<text transform="matrix(1 0 0 1 284.9492 737.8125)" display="inline" font-family="'MyriadPro-Regular'" font-size="21">Learn. Create. Repair. Do.</text>
</g>
<g id="Text_Outline">
	<g>
		<path fill="#231F20" stroke="#000000" stroke-width="0.25" stroke-miterlimit="10" d="M347.624,451.473h10.988
			c3.452,0.021,6.396,1.192,8.834,3.514s3.658,5.117,3.658,8.389s-1.219,6.068-3.658,8.389c-2.438,2.322-5.383,3.504-8.834,3.547
			h-10.988V451.473L347.624,451.473z M350.763,472.334h7.749c2.605,0,4.832-0.875,6.68-2.627c1.848-1.752,2.772-3.863,2.772-6.332
			s-0.925-4.574-2.772-6.315c-1.849-1.741-4.075-2.612-6.68-2.612h-7.749V472.334L350.763,472.334z"/>
		<path fill="#231F20" stroke="#000000" stroke-width="0.25" stroke-miterlimit="10" d="M382.193,475.31
			c-2.316,0-4.281-0.771-5.895-2.311c-1.615-1.54-2.422-3.397-2.422-5.572c0-2.173,0.807-4.036,2.422-5.587
			c1.614-1.551,3.578-2.326,5.895-2.326c2.293,0,4.247,0.775,5.861,2.326c1.614,1.551,2.422,3.414,2.422,5.587
			c0,2.175-0.808,4.032-2.422,5.572C386.439,474.539,384.486,475.31,382.193,475.31z M378.535,470.878
			c1.013,0.949,2.232,1.425,3.658,1.425c1.425,0,2.644-0.476,3.657-1.425c1.014-0.95,1.52-2.1,1.52-3.451
			c0-1.35-0.506-2.501-1.52-3.45c-1.013-0.949-2.232-1.425-3.657-1.425c-1.448,0-2.672,0.476-3.674,1.425s-1.503,2.101-1.503,3.45
			C377.016,468.778,377.521,469.928,378.535,470.878z"/>
		<path fill="#231F20" stroke="#000000" stroke-width="0.25" stroke-miterlimit="10" d="M408.678,472.334v2.976h-7.014
			c-2.294,0-4.258-0.765-5.895-2.295s-2.455-3.393-2.455-5.588v-15.859h3.206v15.859c0,1.372,0.501,2.533,1.503,3.483
			c1.003,0.949,2.216,1.424,3.641,1.424H408.678L408.678,472.334z"/>
		<path fill="#231F20" stroke="#000000" stroke-width="0.25" stroke-miterlimit="10" d="M428.218,467.396v7.946h-3.14v-1.71
			c-1.559,1.14-3.296,1.71-5.211,1.71c-2.294,0-4.258-0.776-5.895-2.327c-1.637-1.552-2.455-3.424-2.455-5.619
			c0-2.194,0.818-4.067,2.455-5.619c1.637-1.551,3.601-2.327,5.895-2.327c2.293,0,4.259,0.775,5.895,2.327
			C427.399,463.328,428.218,465.201,428.218,467.396z M416.177,470.878c1.014,0.971,2.243,1.456,3.69,1.456s2.678-0.485,3.691-1.456
			c1.013-0.971,1.52-2.132,1.52-3.482s-0.512-2.512-1.536-3.482s-2.25-1.456-3.675-1.456s-2.649,0.485-3.674,1.456
			c-1.023,0.971-1.536,2.132-1.536,3.482S415.163,469.907,416.177,470.878z"/>
		<path fill="#231F20" stroke="#000000" stroke-width="0.25" stroke-miterlimit="10" d="M431.557,451.6l3.141-0.032v9.56
			c1.604-1.16,3.34-1.74,5.21-1.74c2.316-0.021,4.292,0.738,5.929,2.278c1.637,1.542,2.466,3.398,2.488,5.571
			c0.022,2.196-0.779,4.08-2.404,5.651c-1.626,1.573-3.586,2.37-5.879,2.391c-2.294,0.021-4.265-0.739-5.912-2.279
			s-2.482-3.408-2.505-5.604L431.557,451.6z M439.941,462.394c-1.448,0.021-2.679,0.518-3.691,1.488
			c-1.014,0.971-1.509,2.132-1.486,3.481c0.022,1.352,0.546,2.513,1.57,3.482c1.023,0.972,2.248,1.446,3.674,1.425
			c1.425-0.021,2.649-0.522,3.674-1.503c1.023-0.982,1.525-2.148,1.503-3.499c-0.022-1.371-0.546-2.532-1.57-3.481
			C442.591,462.837,441.365,462.373,439.941,462.394z"/>
	</g>
	<g>
		<path fill="#231F20" stroke="#000000" stroke-width="0.25" stroke-miterlimit="10" d="M347.51,479.873h0.857v5.549h2.805v0.674
			h-3.662V479.873z"/>
		<path fill="#231F20" stroke="#000000" stroke-width="0.25" stroke-miterlimit="10" d="M352.429,484.01
			c0.02,1.099,0.75,1.551,1.617,1.551c0.614,0,0.994-0.103,1.305-0.23l0.156,0.581c-0.302,0.129-0.828,0.286-1.578,0.286
			c-1.451,0-2.318-0.914-2.318-2.262s0.838-2.4,2.211-2.4c1.549,0,1.948,1.274,1.948,2.096c0,0.166-0.01,0.286-0.029,0.379H352.429z
			 M354.942,483.428c0.01-0.508-0.224-1.311-1.188-1.311c-0.876,0-1.247,0.747-1.315,1.311H354.942z"/>
		<path fill="#231F20" stroke="#000000" stroke-width="0.25" stroke-miterlimit="10" d="M360.145,485.025
			c0,0.387,0.02,0.766,0.068,1.07h-0.769l-0.068-0.563h-0.029c-0.263,0.351-0.77,0.665-1.441,0.665
			c-0.955,0-1.442-0.638-1.442-1.283c0-1.08,1.013-1.672,2.834-1.662v-0.092c0-0.36-0.107-1.034-1.071-1.025
			c-0.448,0-0.906,0.12-1.237,0.332l-0.194-0.544c0.39-0.231,0.964-0.388,1.558-0.388c1.441,0,1.792,0.932,1.792,1.818
			L360.145,485.025L360.145,485.025z M359.316,483.815c-0.935-0.019-1.997,0.139-1.997,1.006c0,0.536,0.37,0.775,0.798,0.775
			c0.624,0,1.023-0.369,1.159-0.747c0.029-0.093,0.039-0.185,0.039-0.259V483.815z"/>
		<path fill="#231F20" stroke="#000000" stroke-width="0.25" stroke-miterlimit="10" d="M361.528,483.021
			c0-0.526-0.01-0.979-0.039-1.394h0.75l0.039,0.886h0.029c0.214-0.6,0.74-0.979,1.315-0.979c0.088,0,0.156,0.01,0.233,0.019v0.767
			c-0.087-0.02-0.175-0.02-0.292-0.02c-0.604,0-1.032,0.426-1.149,1.035c-0.02,0.11-0.029,0.249-0.029,0.378v2.382h-0.857V483.021
			L361.528,483.021z"/>
		<path fill="#231F20" stroke="#000000" stroke-width="0.25" stroke-miterlimit="10" d="M364.752,482.837
			c0-0.472-0.01-0.841-0.039-1.209h0.759l0.049,0.737h0.019c0.234-0.415,0.779-0.83,1.559-0.83c0.653,0,1.666,0.369,1.666,1.901
			v2.659h-0.857v-2.576c0-0.72-0.282-1.32-1.091-1.32c-0.555,0-0.993,0.379-1.149,0.831c-0.039,0.102-0.059,0.24-0.059,0.379v2.687
			h-0.857V482.837L364.752,482.837z"/>
		<path fill="#231F20" stroke="#000000" stroke-width="0.25" stroke-miterlimit="10" d="M369.955,485.615
			c0-0.332,0.244-0.581,0.584-0.581s0.575,0.239,0.575,0.581c0,0.332-0.234,0.582-0.594,0.582
			C370.188,486.197,369.955,485.947,369.955,485.615z"/>
		<path fill="#231F20" stroke="#000000" stroke-width="0.25" stroke-miterlimit="10" d="M378.848,485.901
			c-0.302,0.147-0.935,0.296-1.734,0.296c-1.851,0-3.233-1.107-3.233-3.157c0-1.957,1.393-3.269,3.428-3.269
			c0.809,0,1.334,0.167,1.559,0.277l-0.214,0.656c-0.312-0.148-0.77-0.259-1.315-0.259c-1.539,0-2.562,0.933-2.562,2.565
			c0,1.533,0.925,2.503,2.513,2.503c0.526,0,1.052-0.102,1.393-0.259L378.848,485.901z"/>
		<path fill="#231F20" stroke="#000000" stroke-width="0.25" stroke-miterlimit="10" d="M379.862,483.021
			c0-0.526-0.01-0.979-0.039-1.394h0.75l0.039,0.886h0.029c0.214-0.6,0.74-0.979,1.315-0.979c0.088,0,0.156,0.01,0.234,0.019v0.767
			c-0.088-0.02-0.176-0.02-0.292-0.02c-0.604,0-1.033,0.426-1.149,1.035c-0.02,0.11-0.029,0.249-0.029,0.378v2.382h-0.857
			L379.862,483.021L379.862,483.021z"/>
		<path fill="#231F20" stroke="#000000" stroke-width="0.25" stroke-miterlimit="10" d="M383.427,484.01
			c0.02,1.099,0.75,1.551,1.617,1.551c0.613,0,0.993-0.103,1.305-0.23l0.156,0.581c-0.302,0.129-0.828,0.286-1.578,0.286
			c-1.451,0-2.317-0.914-2.317-2.262s0.837-2.4,2.21-2.4c1.549,0,1.948,1.274,1.948,2.096c0,0.166-0.01,0.286-0.029,0.379H383.427z
			 M385.94,483.428c0.009-0.508-0.224-1.311-1.188-1.311c-0.876,0-1.247,0.747-1.315,1.311H385.94z"/>
		<path fill="#231F20" stroke="#000000" stroke-width="0.25" stroke-miterlimit="10" d="M391.142,485.025
			c0,0.387,0.02,0.766,0.068,1.07h-0.77l-0.068-0.563h-0.029c-0.263,0.351-0.769,0.665-1.441,0.665
			c-0.955,0-1.442-0.638-1.442-1.283c0-1.08,1.014-1.672,2.835-1.662v-0.092c0-0.36-0.107-1.034-1.071-1.025
			c-0.448,0-0.906,0.12-1.237,0.332l-0.194-0.544c0.39-0.231,0.964-0.388,1.558-0.388c1.441,0,1.792,0.932,1.792,1.818
			L391.142,485.025L391.142,485.025z M390.314,483.815c-0.935-0.019-1.997,0.139-1.997,1.006c0,0.536,0.37,0.775,0.799,0.775
			c0.623,0,1.022-0.369,1.159-0.747c0.029-0.093,0.039-0.185,0.039-0.259V483.815z"/>
		<path fill="#231F20" stroke="#000000" stroke-width="0.25" stroke-miterlimit="10" d="M393.52,480.557v1.071h1.228v0.618h-1.228
			v2.409c0,0.554,0.166,0.868,0.643,0.868c0.234,0,0.37-0.019,0.497-0.056l0.039,0.618c-0.166,0.057-0.429,0.111-0.76,0.111
			c-0.399,0-0.721-0.129-0.925-0.342c-0.234-0.25-0.331-0.646-0.331-1.172v-2.438h-0.73v-0.618h0.73v-0.831L393.52,480.557z"/>
		<path fill="#231F20" stroke="#000000" stroke-width="0.25" stroke-miterlimit="10" d="M396.13,484.01
			c0.02,1.099,0.75,1.551,1.617,1.551c0.613,0,0.993-0.103,1.306-0.23l0.155,0.581c-0.302,0.129-0.828,0.286-1.578,0.286
			c-1.451,0-2.318-0.914-2.318-2.262s0.838-2.4,2.211-2.4c1.549,0,1.947,1.274,1.947,2.096c0,0.166-0.01,0.286-0.029,0.379H396.13z
			 M398.643,483.428c0.01-0.508-0.224-1.311-1.188-1.311c-0.877,0-1.247,0.747-1.315,1.311H398.643z"/>
		<path fill="#231F20" stroke="#000000" stroke-width="0.25" stroke-miterlimit="10" d="M400.212,485.615
			c0-0.332,0.243-0.581,0.585-0.581c0.341,0,0.574,0.239,0.574,0.581c0,0.332-0.233,0.582-0.594,0.582
			C400.445,486.197,400.212,485.947,400.212,485.615z"/>
		<path fill="#231F20" stroke="#000000" stroke-width="0.25" stroke-miterlimit="10" d="M404.527,479.957
			c0.429-0.074,1.052-0.129,1.627-0.129c0.905,0,1.5,0.165,1.898,0.507c0.322,0.276,0.517,0.702,0.517,1.191
			c0,0.812-0.546,1.356-1.228,1.578v0.027c0.497,0.167,0.799,0.609,0.955,1.255c0.214,0.869,0.37,1.469,0.506,1.709h-0.876
			c-0.107-0.186-0.254-0.712-0.429-1.486c-0.195-0.859-0.556-1.183-1.324-1.21h-0.8v2.696h-0.847V479.957L404.527,479.957z
			 M405.375,482.791h0.866c0.906,0,1.48-0.471,1.48-1.182c0-0.804-0.613-1.154-1.509-1.154c-0.41,0-0.692,0.027-0.838,0.064V482.791
			L405.375,482.791z"/>
		<path fill="#231F20" stroke="#000000" stroke-width="0.25" stroke-miterlimit="10" d="M410.256,484.01
			c0.019,1.099,0.75,1.551,1.616,1.551c0.614,0,0.993-0.103,1.306-0.23l0.155,0.581c-0.302,0.129-0.828,0.286-1.577,0.286
			c-1.452,0-2.318-0.914-2.318-2.262s0.838-2.4,2.211-2.4c1.549,0,1.947,1.274,1.947,2.096c0,0.166-0.01,0.286-0.029,0.379H410.256z
			 M412.768,483.428c0.01-0.508-0.224-1.311-1.188-1.311c-0.877,0-1.247,0.747-1.314,1.311H412.768z"/>
		<path fill="#231F20" stroke="#000000" stroke-width="0.25" stroke-miterlimit="10" d="M414.658,483.086
			c0-0.572-0.019-1.034-0.039-1.458h0.761l0.048,0.766h0.02c0.341-0.544,0.906-0.858,1.676-0.858c1.148,0,2.006,0.914,2.006,2.262
			c0,1.606-1.042,2.4-2.152,2.4c-0.623,0-1.168-0.259-1.451-0.702h-0.02v2.428h-0.848V483.086L414.658,483.086z M415.506,484.276
			c0,0.12,0.01,0.231,0.039,0.333c0.156,0.563,0.672,0.951,1.286,0.951c0.905,0,1.433-0.702,1.433-1.727
			c0-0.887-0.498-1.652-1.402-1.652c-0.585,0-1.141,0.388-1.296,0.997c-0.029,0.101-0.059,0.222-0.059,0.323L415.506,484.276
			L415.506,484.276z"/>
		<path fill="#231F20" stroke="#000000" stroke-width="0.25" stroke-miterlimit="10" d="M423.514,485.025
			c0,0.387,0.019,0.766,0.067,1.07h-0.77l-0.067-0.563h-0.029c-0.264,0.351-0.77,0.665-1.442,0.665
			c-0.954,0-1.441-0.638-1.441-1.283c0-1.08,1.013-1.672,2.835-1.662v-0.092c0-0.36-0.107-1.034-1.072-1.025
			c-0.447,0-0.905,0.12-1.236,0.332l-0.194-0.544c0.39-0.231,0.964-0.388,1.558-0.388c1.442,0,1.793,0.932,1.793,1.818V485.025z
			 M422.686,483.815c-0.936-0.019-1.997,0.139-1.997,1.006c0,0.536,0.37,0.775,0.799,0.775c0.624,0,1.022-0.369,1.159-0.747
			c0.029-0.093,0.039-0.185,0.039-0.259V483.815z"/>
		<path fill="#231F20" stroke="#000000" stroke-width="0.25" stroke-miterlimit="10" d="M425.852,480.372
			c0,0.276-0.205,0.498-0.545,0.498c-0.312,0-0.517-0.222-0.517-0.498c0-0.277,0.214-0.507,0.536-0.507
			C425.637,479.865,425.852,480.086,425.852,480.372z M424.896,486.096v-4.468h0.857v4.468H424.896z"/>
		<path fill="#231F20" stroke="#000000" stroke-width="0.25" stroke-miterlimit="10" d="M427.176,483.021
			c0-0.526-0.009-0.979-0.039-1.394h0.751l0.039,0.886h0.029c0.214-0.6,0.739-0.979,1.315-0.979c0.087,0,0.155,0.01,0.233,0.019
			v0.767c-0.088-0.02-0.175-0.02-0.292-0.02c-0.604,0-1.033,0.426-1.15,1.035c-0.019,0.11-0.028,0.249-0.028,0.378v2.382h-0.858
			V483.021z"/>
		<path fill="#231F20" stroke="#000000" stroke-width="0.25" stroke-miterlimit="10" d="M429.642,485.615
			c0-0.332,0.243-0.581,0.584-0.581s0.575,0.239,0.575,0.581c0,0.332-0.234,0.582-0.595,0.582
			C429.875,486.197,429.642,485.947,429.642,485.615z"/>
		<path fill="#231F20" stroke="#000000" stroke-width="0.25" stroke-miterlimit="10" d="M433.957,479.966
			c0.516-0.083,1.13-0.138,1.802-0.138c1.217,0,2.083,0.275,2.659,0.775c0.593,0.507,0.935,1.227,0.935,2.233
			c0,1.016-0.342,1.847-0.944,2.419c-0.623,0.582-1.637,0.896-2.912,0.896c-0.614,0-1.111-0.028-1.539-0.074V479.966
			L433.957,479.966z M434.804,485.468c0.215,0.027,0.526,0.037,0.857,0.037c1.821,0,2.796-0.96,2.796-2.641
			c0.009-1.468-0.867-2.4-2.659-2.4c-0.438,0-0.77,0.037-0.994,0.083V485.468z"/>
		<path fill="#231F20" stroke="#000000" stroke-width="0.25" stroke-miterlimit="10" d="M444.721,483.824
			c0,1.653-1.218,2.373-2.348,2.373c-1.266,0-2.26-0.887-2.26-2.299c0-1.486,1.043-2.363,2.338-2.363
			C443.805,481.535,444.721,482.468,444.721,483.824z M440.99,483.871c0,0.979,0.584,1.717,1.422,1.717
			c0.818,0,1.432-0.729,1.432-1.735c0-0.757-0.398-1.708-1.412-1.708C441.429,482.145,440.99,483.031,440.99,483.871z"/>
		<path fill="#231F20" stroke="#000000" stroke-width="0.25" stroke-miterlimit="10" d="M445.364,485.615
			c0-0.332,0.244-0.581,0.584-0.581c0.341,0,0.575,0.239,0.575,0.581c0,0.332-0.234,0.582-0.594,0.582
			C445.598,486.197,445.364,485.947,445.364,485.615z"/>
	</g>
	<g>
		<path stroke="#231F20" stroke-width="0.1448" stroke-miterlimit="10" d="M444.345,452.316v0.47h-0.907v2.366h-0.562v-2.366h-0.896
			v-0.47H444.345z M447.41,455.152l-0.104-1.668c-0.011-0.219-0.011-0.49-0.021-0.793h-0.031c-0.073,0.251-0.168,0.584-0.24,0.845
			l-0.512,1.575h-0.583l-0.511-1.616c-0.053-0.209-0.136-0.553-0.198-0.804h-0.031c0,0.262-0.011,0.532-0.021,0.793l-0.104,1.668
			h-0.541l0.208-2.836h0.845l0.49,1.387c0.072,0.219,0.114,0.428,0.188,0.72h0.01c0.073-0.251,0.136-0.501,0.198-0.698l0.49-1.408
			h0.813l0.219,2.836H447.41z"/>
	</g>
</g>
</svg>
