<?xml version="1.0" encoding="utf-8"?>
<!-- Generator: Adobe Illustrator 15.0.0, SVG Export Plug-In . SVG Version: 6.00 Build 0)  -->
<!DOCTYPE svg PUBLIC "-//W3C//DTD SVG 1.1//EN" "http://www.w3.org/Graphics/SVG/1.1/DTD/svg11.dtd">
<svg version="1.1" id="Layer_1" xmlns="http://www.w3.org/2000/svg" xmlns:xlink="http://www.w3.org/1999/xlink" x="0px" y="0px"
	 width="216px" height="216px" viewBox="0 0 216 216" enable-background="new 0 0 216 216" xml:space="preserve">
<g id="Layer_2">
	<path fill="#231F20" stroke="#000000" stroke-width="0.25" stroke-miterlimit="10" d="M74.273,25.245
		c-2.224,0.352,0.885,5.357,0.885,5.357s2.694,3.379,4.02,2.78c1.326-0.599,0.498,0.3-1.74-3.636S76.495,24.893,74.273,25.245z"/>
	<path fill="#231F20" stroke="#000000" stroke-width="0.25" stroke-miterlimit="10" d="M93.664,46.792
		c0.34-0.852,0.049-6.803,0.049-6.803s0.484-1.801,1.696-2.15c1.211-0.352,10.854-3.65,10.854-3.65s0.97-0.801,1.695,1.149
		c0.726,1.95,0.278,7.34,0.581,8.353c0.146,0.375,7.561,2.752,8.335,3.603c1.32,0.601,3.161-3.688,6.299-6.402
		c0.849-0.625,0.922-0.5,1.356-0.25c0.196,0.112,1.515,2.226,3.24,3.071c2.854,1.243,3.979,3.932,3.979,3.932s0.242,1.1-0.098,1.551
		c-0.339,0.449-5.317,3.826-5.281,3.951c1.188,2.125,6.178,3.613,8.286,8.952c1.369,0.464,7.05-1.812,7.172-1.5
		c1.211,1.714,0.508,11.079,0.678,12.354c-1.381,0.013-4.747,1.25-4.747,1.25s-2.12,9.791-5.962,13.604
		c0.582,2.163,7.137,4.852,7.317,5.452c0.327,1.188-7.184,7.665-7.607,7.603c-2.361,0.201-3.9-3.602-4.604-3.5
		c-0.703,0.101-7.22,8.053-9.062,8.703c0.533,2.65,1.454,7.889,1.213,8.301c-0.242,0.413-12.453,4.015-13.374,3.802
		c-1.029-1.638-0.437-6.604-0.437-6.604s-12.599,1.427-16.426-3.1c-1.43,0.375-3.792,7.427-4.361,7.602
		c-1.654-0.75-7.606-4.435-7.801-4.852c0.064-2.259,2.98-6.634,2.811-7.202c-0.694-1.225-6.872-2.708-10.321-9.304
		c-0.728-0.573-5.646,1.761-6.639,1.4c-0.993-0.359-0.921-10.127-0.823-10.653c0.097-0.526,7.897-3.251,7.897-3.251
		s-1.065-6.053,5.186-13.506c-2.561-0.473-4.248-1.582-4.604-2.101c-0.354-0.519,3.942-11.044,4.41-11.204s5.766,3.151,5.766,3.151
		S85.668,51.692,93.664,46.792z M103.743,93.491c11.306-2.568,23.549-9.971,18.328-23.674c-3.671-11.469-18.361-13.474-30.285-2.031
		C78.481,87.421,87.365,95.924,103.743,93.491z"/>
	<path fill="#231F20" stroke="#000000" stroke-width="0.25" stroke-miterlimit="10" d="M125.111,24.159
		c-0.993-0.977,1.163-2.201,3.053-4.452c1.891-2.251,3.586-5.277,4.481-4.202s-0.679,2.4-2.786,4.352S126.104,25.133,125.111,24.159
		z"/>
	<path fill="#231F20" stroke="#000000" stroke-width="0.25" stroke-miterlimit="10" d="M152.052,42.264
		c-0.362-0.775,4.822-4.9,4.822-4.9s4.53-4.127,6.154-2.901c1.623,1.226-3.74,3.576-4.991,4.401
		C156.786,39.69,152.416,43.041,152.052,42.264z"/>
	<path fill="#231F20" stroke="#000000" stroke-width="0.25" stroke-miterlimit="10" d="M153.299,84.286
		c1.201-1.042,6.577,0.916,10.162,1.922c2.957,0.699,8.507,3.951,7.395,5.011c-3.079-0.593-4.229-1.616-8.299-3.323
		C159.771,86.747,153.631,87.518,153.299,84.286z"/>
	<path fill="#231F20" stroke="#000000" stroke-width="0.25" stroke-miterlimit="10" d="M45.118,70.284
		c1.769-0.823,2.378,0.5,5.225,2.195c1.909,1.082,6.148,0.744,5.82,3.084c-0.375,0.549-5.413-0.84-6.617-1.26
		S44.257,72.528,45.118,70.284z"/>
	<path fill="#231F20" stroke="#000000" stroke-width="0.25" stroke-miterlimit="10" d="M88.027,119.711
		c2.086,0.574,2.326,2.307,6.978,2.44c3.926,0.365,26.031-0.79,26.264,0.86c0.626,3.23-11.081,0.383-26.982,1.148
		C90.298,124.185,85.848,121.361,88.027,119.711z"/>
	<path fill="#231F20" stroke="#000000" stroke-width="0.25" stroke-miterlimit="10" d="M87.261,126.77
		c0.928-2.01,1.638,1.983,7.023,2.561c7.244,1.94,20.472-2.062,23.435-0.12c0.202,2.178-8.423,2.728-20.676,2.656
		C94.342,131.653,88.059,131.986,87.261,126.77z"/>
	<path fill="#231F20" stroke="#000000" stroke-width="0.25" stroke-miterlimit="10" d="M88.075,135.223
		c0.469-1.768,0.646,1.101,9.514,2.067s20.334-1.436,20.463-0.317c1.147,2.984-15.359,2.353-17.604,2.401
		C98.202,139.424,88.349,139.407,88.075,135.223z"/>
	<path fill="#231F20" stroke="#000000" stroke-width="0.25" stroke-miterlimit="10" d="M91.45,143.342
		c3.408-1.117,17.75-0.767,22.806-0.333c-3.473,13.004-7.154,16.272-13.035,16.862C95.402,160.456,91.112,143.643,91.45,143.342z"/>
</g>
<g id="Font" display="none">
	<text transform="matrix(1 0 0 1 262.1543 713.2812)" display="inline" font-family="'BauhausModern-Regular'" font-size="72">DoLab</text>
	
		<text transform="matrix(1 0 0 1 262.1543 713.2812)" display="inline" fill="none" stroke="#231F20" stroke-miterlimit="10" font-family="'BauhausModern-Regular'" font-size="72">DoLab</text>
	<text transform="matrix(1 0 0 1 485.2793 713.2812)" display="inline" font-family="'MyriadPro-Regular'" font-size="72">™</text>
	
		<text transform="matrix(1 0 0 1 485.2793 713.2812)" display="inline" fill="none" stroke="#231F20" stroke-miterlimit="10" font-family="'MyriadPro-Regular'" font-size="72">™</text>
	<text transform="matrix(1 0 0 1 284.9492 737.8125)" display="inline" font-family="'MyriadPro-Regular'" font-size="21">Learn. Create. Repair. Do.</text>
</g>
<g id="Text_Outline_TM" display="none">
	<g display="inline">
		<path stroke="#231F20" stroke-width="1.7506" stroke-miterlimit="10" d="M166.885,620.314h41.469
			c13.025,0.084,24.14,4.745,33.34,13.99c9.201,9.243,13.803,20.376,13.803,33.401s-4.602,24.159-13.803,33.401
			c-9.201,9.244-20.314,13.948-33.34,14.116h-41.469V620.314L166.885,620.314z M178.734,703.379h29.242
			c9.832,0,18.233-3.484,25.209-10.462c6.976-6.974,10.463-15.379,10.463-25.209c0-9.832-3.487-18.214-10.463-25.146
			c-6.976-6.934-15.377-10.399-25.209-10.399h-29.242V703.379z"/>
		<path stroke="#231F20" stroke-width="1.7506" stroke-miterlimit="10" d="M297.342,715.229c-8.74,0-16.156-3.066-22.246-9.201
			c-6.095-6.134-9.14-13.528-9.14-22.186c0-8.654,3.045-16.072,9.14-22.247c6.09-6.177,13.506-9.265,22.246-9.265
			c8.653,0,16.027,3.088,22.121,9.265c6.092,6.175,9.139,13.593,9.139,22.247c0,8.655-3.047,16.052-9.139,22.186
			C313.369,712.16,305.996,715.229,297.342,715.229z M283.54,697.581c3.823,3.78,8.423,5.672,13.803,5.672
			c5.376,0,9.979-1.892,13.802-5.672c3.822-3.782,5.735-8.36,5.735-13.739c0-5.377-1.913-9.958-5.735-13.74
			c-3.823-3.777-8.424-5.67-13.802-5.67c-5.464,0-10.084,1.893-13.866,5.67c-3.781,3.782-5.672,8.363-5.672,13.74
			C277.805,689.221,279.715,693.799,283.54,697.581z"/>
		<path stroke="#231F20" stroke-width="1.7506" stroke-miterlimit="10" d="M397.296,703.379v11.85h-26.471
			c-8.656,0-16.071-3.047-22.247-9.14c-6.177-6.091-9.267-13.507-9.267-22.247v-63.147h12.103v63.147
			c0,5.462,1.89,10.083,5.671,13.865c3.782,3.781,8.361,5.672,13.739,5.672H397.296L397.296,703.379z"/>
		<path stroke="#231F20" stroke-width="1.7506" stroke-miterlimit="10" d="M471.03,683.715v31.639h-11.849v-6.808
			c-5.883,4.539-12.438,6.808-19.664,6.808c-8.653,0-16.068-3.089-22.246-9.265c-6.176-6.177-9.266-13.633-9.266-22.374
			c0-8.737,3.09-16.196,9.266-22.374c6.178-6.174,13.593-9.264,22.246-9.264c8.654,0,16.072,3.09,22.247,9.264
			C467.943,667.519,471.03,674.979,471.03,683.715z M425.594,697.581c3.821,3.865,8.464,5.798,13.926,5.798
			c5.465,0,10.104-1.933,13.93-5.798c3.822-3.864,5.734-8.487,5.734-13.866c0-5.376-1.934-10-5.798-13.864
			c-3.866-3.862-8.489-5.799-13.866-5.799c-5.379,0-10,1.937-13.863,5.799c-3.864,3.864-5.797,8.488-5.797,13.864
			C419.857,689.094,421.767,693.717,425.594,697.581z"/>
		<path stroke="#231F20" stroke-width="1.7506" stroke-miterlimit="10" d="M483.635,620.818l11.851-0.126v38.063
			c6.051-4.621,12.604-6.932,19.663-6.932c8.737-0.084,16.194,2.94,22.371,9.074c6.179,6.136,9.308,13.527,9.394,22.185
			c0.081,8.741-2.943,16.24-9.076,22.499c-6.135,6.262-13.53,9.435-22.185,9.517c-8.655,0.087-16.095-2.938-22.312-9.073
			c-6.22-6.133-9.37-13.569-9.452-22.312L483.635,620.818z M515.271,663.8c-5.465,0.086-10.104,2.062-13.929,5.924
			c-3.825,3.867-5.691,8.488-5.607,13.865c0.083,5.379,2.058,10.001,5.926,13.864c3.863,3.868,8.482,5.759,13.864,5.674
			c5.377-0.083,9.998-2.079,13.863-5.987c3.863-3.907,5.755-8.551,5.67-13.929c-0.083-5.46-2.06-10.083-5.924-13.865
			C525.271,665.564,520.649,663.719,515.271,663.8z"/>
		<path stroke="#231F20" stroke-width="1.7506" stroke-miterlimit="10" d="M583.844,630.265v5.673h-10.966v28.615h-6.808v-28.615
			h-10.842v-5.673H583.844z M620.904,664.553l-1.262-20.17c-0.126-2.646-0.126-5.925-0.252-9.581h-0.379
			c-0.883,3.026-2.016,7.062-2.897,10.211l-6.179,19.035h-7.06l-6.176-19.539c-0.63-2.521-1.641-6.681-2.396-9.707h-0.378
			c0,3.152-0.126,6.433-0.25,9.581l-1.262,20.17h-6.555l2.521-34.288h10.21l5.926,16.768c0.885,2.646,1.389,5.168,2.271,8.695h0.126
			c0.883-3.022,1.639-6.051,2.396-8.443l5.926-17.02h9.834l2.646,34.288H620.904z"/>
	</g>
	<text transform="matrix(1 0 0 1 284.9492 737.8125)" display="inline" font-family="'MyriadPro-Regular'" font-size="21">Learn. Create. Repair. Do.</text>
</g>
<g id="Text_Outline">
	<g>
		<path fill="#231F20" stroke="#000000" stroke-width="0.25" stroke-miterlimit="10" d="M57.239,164.269h10.988
			c3.452,0.021,6.396,1.192,8.834,3.515c2.438,2.321,3.657,5.116,3.657,8.389s-1.219,6.068-3.657,8.389
			c-2.438,2.322-5.384,3.504-8.834,3.548H57.239V164.269L57.239,164.269z M60.377,185.13h7.749c2.605,0,4.832-0.875,6.681-2.627
			c1.848-1.752,2.771-3.863,2.771-6.332s-0.925-4.574-2.771-6.315c-1.85-1.74-4.075-2.611-6.681-2.611h-7.749V185.13L60.377,185.13z
			"/>
		<path fill="#231F20" stroke="#000000" stroke-width="0.25" stroke-miterlimit="10" d="M91.808,188.105
			c-2.316,0-4.281-0.771-5.896-2.311c-1.615-1.54-2.422-3.397-2.422-5.572c0-2.173,0.807-4.036,2.422-5.587
			c1.614-1.551,3.578-2.326,5.896-2.326c2.293,0,4.247,0.775,5.86,2.326c1.614,1.551,2.422,3.414,2.422,5.587
			c0,2.175-0.808,4.032-2.422,5.572S94.101,188.105,91.808,188.105z M88.15,183.674c1.013,0.949,2.231,1.425,3.658,1.425
			c1.425,0,2.644-0.476,3.656-1.425c1.015-0.95,1.521-2.1,1.521-3.451c0-1.35-0.506-2.501-1.521-3.45
			c-1.013-0.948-2.231-1.425-3.656-1.425c-1.448,0-2.672,0.477-3.675,1.425c-1.002,0.949-1.503,2.102-1.503,3.45
			C86.63,181.574,87.136,182.724,88.15,183.674z"/>
		<path fill="#231F20" stroke="#000000" stroke-width="0.25" stroke-miterlimit="10" d="M118.292,185.13v2.976h-7.014
			c-2.294,0-4.257-0.765-5.895-2.295c-1.637-1.529-2.454-3.393-2.454-5.588v-15.858h3.205v15.858c0,1.372,0.502,2.533,1.504,3.483
			c1.002,0.949,2.215,1.424,3.64,1.424H118.292L118.292,185.13z"/>
		<path fill="#231F20" stroke="#000000" stroke-width="0.25" stroke-miterlimit="10" d="M137.832,180.192v7.945h-3.14v-1.71
			c-1.56,1.141-3.296,1.71-5.211,1.71c-2.294,0-4.258-0.775-5.896-2.327c-1.637-1.552-2.455-3.424-2.455-5.618
			s0.818-4.067,2.455-5.619c1.638-1.552,3.602-2.327,5.896-2.327c2.293,0,4.259,0.774,5.895,2.327
			C137.014,176.124,137.832,177.997,137.832,180.192z M125.791,183.674c1.015,0.971,2.243,1.456,3.69,1.456s2.678-0.485,3.69-1.456
			c1.014-0.971,1.521-2.132,1.521-3.481c0-1.351-0.512-2.513-1.536-3.482s-2.25-1.456-3.675-1.456s-2.649,0.485-3.674,1.456
			c-1.023,0.971-1.536,2.132-1.536,3.482C124.271,181.542,124.777,182.703,125.791,183.674z"/>
		<path fill="#231F20" stroke="#000000" stroke-width="0.25" stroke-miterlimit="10" d="M141.171,164.396l3.142-0.031v9.56
			c1.604-1.16,3.34-1.74,5.21-1.74c2.315-0.021,4.293,0.738,5.93,2.278c1.637,1.542,2.466,3.398,2.488,5.571
			c0.021,2.195-0.779,4.08-2.404,5.65c-1.626,1.573-3.587,2.37-5.88,2.392c-2.294,0.021-4.265-0.739-5.912-2.279
			c-1.646-1.54-2.481-3.408-2.505-5.604L141.171,164.396z M149.556,175.189c-1.448,0.021-2.68,0.519-3.691,1.488
			c-1.014,0.972-1.509,2.132-1.486,3.481c0.022,1.352,0.546,2.513,1.57,3.481c1.023,0.973,2.248,1.446,3.674,1.425
			c1.425-0.021,2.649-0.521,3.674-1.503s1.526-2.147,1.504-3.499c-0.021-1.37-0.546-2.531-1.57-3.48
			C152.205,175.633,150.979,175.169,149.556,175.189z"/>
	</g>
	<g>
		<path fill="#231F20" stroke="#000000" stroke-width="0.25" stroke-miterlimit="10" d="M57.125,192.669h0.857v5.549h2.805v0.674
			h-3.662V192.669z"/>
		<path fill="#231F20" stroke="#000000" stroke-width="0.25" stroke-miterlimit="10" d="M62.043,196.806
			c0.021,1.1,0.75,1.551,1.617,1.551c0.614,0,0.994-0.103,1.305-0.229l0.156,0.581c-0.302,0.129-0.828,0.286-1.578,0.286
			c-1.451,0-2.317-0.914-2.317-2.263c0-1.348,0.838-2.399,2.211-2.399c1.549,0,1.947,1.273,1.947,2.096
			c0,0.166-0.01,0.286-0.028,0.379L62.043,196.806L62.043,196.806z M64.557,196.224c0.01-0.508-0.225-1.311-1.188-1.311
			c-0.876,0-1.247,0.747-1.314,1.311H64.557z"/>
		<path fill="#231F20" stroke="#000000" stroke-width="0.25" stroke-miterlimit="10" d="M69.759,197.821
			c0,0.387,0.021,0.766,0.068,1.069h-0.769l-0.068-0.562h-0.029c-0.263,0.351-0.77,0.665-1.44,0.665
			c-0.955,0-1.442-0.639-1.442-1.283c0-1.08,1.013-1.672,2.834-1.662v-0.092c0-0.36-0.106-1.034-1.071-1.025
			c-0.447,0-0.905,0.12-1.236,0.332l-0.194-0.544c0.39-0.23,0.964-0.388,1.558-0.388c1.441,0,1.793,0.932,1.793,1.818
			L69.759,197.821L69.759,197.821z M68.931,196.611c-0.936-0.02-1.997,0.139-1.997,1.006c0,0.536,0.37,0.774,0.798,0.774
			c0.624,0,1.022-0.369,1.159-0.747c0.028-0.093,0.039-0.185,0.039-0.259L68.931,196.611L68.931,196.611z"/>
		<path fill="#231F20" stroke="#000000" stroke-width="0.25" stroke-miterlimit="10" d="M71.143,195.817
			c0-0.526-0.011-0.979-0.039-1.395h0.75l0.039,0.886h0.028c0.215-0.6,0.74-0.979,1.315-0.979c0.088,0,0.156,0.01,0.233,0.019v0.768
			c-0.088-0.021-0.176-0.021-0.292-0.021c-0.604,0-1.032,0.426-1.149,1.035c-0.02,0.11-0.029,0.249-0.029,0.378v2.382h-0.856
			V195.817L71.143,195.817z"/>
		<path fill="#231F20" stroke="#000000" stroke-width="0.25" stroke-miterlimit="10" d="M74.367,195.633
			c0-0.472-0.01-0.841-0.039-1.209h0.759l0.05,0.737h0.019c0.234-0.415,0.779-0.83,1.559-0.83c0.653,0,1.666,0.369,1.666,1.9v2.659
			h-0.856v-2.576c0-0.72-0.282-1.319-1.091-1.319c-0.556,0-0.993,0.379-1.149,0.831c-0.039,0.102-0.059,0.239-0.059,0.379v2.687
			h-0.857V195.633L74.367,195.633z"/>
		<path fill="#231F20" stroke="#000000" stroke-width="0.25" stroke-miterlimit="10" d="M79.57,198.411
			c0-0.332,0.244-0.581,0.584-0.581s0.575,0.239,0.575,0.581c0,0.332-0.234,0.582-0.595,0.582
			C79.802,198.993,79.57,198.743,79.57,198.411z"/>
		<path fill="#231F20" stroke="#000000" stroke-width="0.25" stroke-miterlimit="10" d="M88.462,198.697
			c-0.302,0.146-0.935,0.296-1.733,0.296c-1.852,0-3.233-1.107-3.233-3.157c0-1.957,1.394-3.27,3.428-3.27
			c0.81,0,1.334,0.167,1.56,0.277l-0.214,0.656c-0.312-0.148-0.771-0.259-1.315-0.259c-1.539,0-2.562,0.933-2.562,2.564
			c0,1.533,0.925,2.503,2.513,2.503c0.526,0,1.052-0.102,1.393-0.259L88.462,198.697z"/>
		<path fill="#231F20" stroke="#000000" stroke-width="0.25" stroke-miterlimit="10" d="M89.477,195.817
			c0-0.526-0.011-0.979-0.039-1.395h0.75l0.039,0.886h0.028c0.215-0.6,0.74-0.979,1.315-0.979c0.088,0,0.156,0.01,0.234,0.019v0.768
			c-0.089-0.021-0.177-0.021-0.292-0.021c-0.604,0-1.033,0.426-1.149,1.035c-0.02,0.11-0.029,0.249-0.029,0.378v2.382h-0.856
			L89.477,195.817L89.477,195.817z"/>
		<path fill="#231F20" stroke="#000000" stroke-width="0.25" stroke-miterlimit="10" d="M93.042,196.806
			c0.021,1.1,0.75,1.551,1.617,1.551c0.613,0,0.993-0.103,1.305-0.229l0.156,0.581c-0.302,0.129-0.828,0.286-1.578,0.286
			c-1.451,0-2.316-0.914-2.316-2.263c0-1.348,0.837-2.399,2.21-2.399c1.549,0,1.947,1.273,1.947,2.096
			c0,0.166-0.01,0.286-0.028,0.379L93.042,196.806L93.042,196.806z M95.555,196.224c0.009-0.508-0.225-1.311-1.188-1.311
			c-0.876,0-1.247,0.747-1.314,1.311H95.555z"/>
		<path fill="#231F20" stroke="#000000" stroke-width="0.25" stroke-miterlimit="10" d="M100.756,197.821
			c0,0.387,0.021,0.766,0.068,1.069h-0.77l-0.068-0.562h-0.029c-0.263,0.351-0.769,0.665-1.44,0.665
			c-0.955,0-1.442-0.639-1.442-1.283c0-1.08,1.014-1.672,2.835-1.662v-0.092c0-0.36-0.106-1.034-1.071-1.025
			c-0.447,0-0.905,0.12-1.236,0.332l-0.194-0.544c0.39-0.23,0.964-0.388,1.558-0.388c1.441,0,1.792,0.932,1.792,1.818
			L100.756,197.821L100.756,197.821z M99.929,196.611c-0.936-0.02-1.997,0.139-1.997,1.006c0,0.536,0.369,0.774,0.799,0.774
			c0.623,0,1.021-0.369,1.159-0.747c0.028-0.093,0.039-0.185,0.039-0.259V196.611z"/>
		<path fill="#231F20" stroke="#000000" stroke-width="0.25" stroke-miterlimit="10" d="M103.134,193.353v1.071h1.229v0.618h-1.229
			v2.409c0,0.554,0.166,0.868,0.644,0.868c0.234,0,0.37-0.02,0.497-0.057l0.039,0.618c-0.166,0.057-0.43,0.111-0.76,0.111
			c-0.399,0-0.722-0.129-0.926-0.342c-0.233-0.25-0.331-0.646-0.331-1.173v-2.438h-0.729v-0.618h0.729v-0.831L103.134,193.353z"/>
		<path fill="#231F20" stroke="#000000" stroke-width="0.25" stroke-miterlimit="10" d="M105.745,196.806
			c0.021,1.1,0.75,1.551,1.617,1.551c0.613,0,0.993-0.103,1.305-0.229l0.155,0.581c-0.302,0.129-0.828,0.286-1.578,0.286
			c-1.451,0-2.317-0.914-2.317-2.263c0-1.348,0.838-2.399,2.211-2.399c1.548,0,1.946,1.273,1.946,2.096
			c0,0.166-0.01,0.286-0.028,0.379L105.745,196.806L105.745,196.806z M108.257,196.224c0.011-0.508-0.224-1.311-1.188-1.311
			c-0.877,0-1.247,0.747-1.315,1.311H108.257z"/>
		<path fill="#231F20" stroke="#000000" stroke-width="0.25" stroke-miterlimit="10" d="M109.826,198.411
			c0-0.332,0.243-0.581,0.585-0.581c0.341,0,0.574,0.239,0.574,0.581c0,0.332-0.233,0.582-0.594,0.582
			C110.06,198.993,109.826,198.743,109.826,198.411z"/>
		<path fill="#231F20" stroke="#000000" stroke-width="0.25" stroke-miterlimit="10" d="M114.142,192.753
			c0.429-0.074,1.052-0.129,1.627-0.129c0.904,0,1.5,0.165,1.897,0.507c0.322,0.276,0.518,0.702,0.518,1.191
			c0,0.812-0.546,1.355-1.229,1.577v0.027c0.497,0.167,0.799,0.609,0.955,1.255c0.214,0.869,0.37,1.47,0.506,1.709h-0.876
			c-0.106-0.186-0.254-0.712-0.429-1.485c-0.195-0.859-0.556-1.184-1.324-1.21h-0.8v2.695h-0.847L114.142,192.753L114.142,192.753z
			 M114.989,195.587h0.866c0.906,0,1.479-0.471,1.479-1.182c0-0.805-0.612-1.154-1.509-1.154c-0.41,0-0.692,0.027-0.838,0.063
			L114.989,195.587L114.989,195.587z"/>
		<path fill="#231F20" stroke="#000000" stroke-width="0.25" stroke-miterlimit="10" d="M119.87,196.806
			c0.02,1.1,0.75,1.551,1.616,1.551c0.614,0,0.993-0.103,1.306-0.229l0.155,0.581c-0.302,0.129-0.828,0.286-1.577,0.286
			c-1.452,0-2.317-0.914-2.317-2.263c0-1.348,0.838-2.399,2.211-2.399c1.549,0,1.946,1.273,1.946,2.096
			c0,0.166-0.01,0.286-0.028,0.379L119.87,196.806L119.87,196.806z M122.382,196.224c0.011-0.508-0.224-1.311-1.188-1.311
			c-0.877,0-1.247,0.747-1.314,1.311H122.382z"/>
		<path fill="#231F20" stroke="#000000" stroke-width="0.25" stroke-miterlimit="10" d="M124.272,195.882
			c0-0.572-0.02-1.034-0.039-1.458h0.761l0.048,0.766h0.021c0.341-0.544,0.905-0.857,1.676-0.857c1.147,0,2.006,0.914,2.006,2.262
			c0,1.606-1.042,2.4-2.152,2.4c-0.622,0-1.168-0.259-1.45-0.702h-0.021v2.428h-0.848L124.272,195.882L124.272,195.882z
			 M125.12,197.072c0,0.12,0.01,0.23,0.039,0.333c0.156,0.562,0.672,0.95,1.286,0.95c0.905,0,1.433-0.701,1.433-1.727
			c0-0.887-0.498-1.652-1.401-1.652c-0.585,0-1.142,0.389-1.296,0.997c-0.029,0.102-0.06,0.223-0.06,0.323L125.12,197.072
			L125.12,197.072z"/>
		<path fill="#231F20" stroke="#000000" stroke-width="0.25" stroke-miterlimit="10" d="M133.128,197.821
			c0,0.387,0.02,0.766,0.067,1.069h-0.771l-0.066-0.562h-0.029c-0.264,0.351-0.77,0.665-1.441,0.665
			c-0.954,0-1.441-0.639-1.441-1.283c0-1.08,1.013-1.672,2.835-1.662v-0.092c0-0.36-0.107-1.034-1.072-1.025
			c-0.446,0-0.904,0.12-1.235,0.332l-0.194-0.544c0.39-0.23,0.964-0.388,1.558-0.388c1.442,0,1.793,0.932,1.793,1.818v1.672H133.128
			z M132.3,196.611c-0.936-0.02-1.996,0.139-1.996,1.006c0,0.536,0.369,0.774,0.799,0.774c0.624,0,1.021-0.369,1.159-0.747
			c0.028-0.093,0.038-0.185,0.038-0.259V196.611z"/>
		<path fill="#231F20" stroke="#000000" stroke-width="0.25" stroke-miterlimit="10" d="M135.466,193.168
			c0,0.276-0.204,0.498-0.545,0.498c-0.312,0-0.517-0.222-0.517-0.498c0-0.277,0.214-0.507,0.536-0.507
			C135.251,192.661,135.466,192.882,135.466,193.168z M134.511,198.892v-4.468h0.856v4.468H134.511z"/>
		<path fill="#231F20" stroke="#000000" stroke-width="0.25" stroke-miterlimit="10" d="M136.79,195.817
			c0-0.526-0.009-0.979-0.039-1.395h0.751l0.039,0.886h0.029c0.214-0.6,0.739-0.979,1.315-0.979c0.087,0,0.154,0.01,0.232,0.019
			v0.768c-0.088-0.021-0.175-0.021-0.292-0.021c-0.604,0-1.033,0.426-1.149,1.035c-0.02,0.11-0.028,0.249-0.028,0.378v2.382h-0.858
			V195.817z"/>
		<path fill="#231F20" stroke="#000000" stroke-width="0.25" stroke-miterlimit="10" d="M139.256,198.411
			c0-0.332,0.243-0.581,0.584-0.581c0.342,0,0.575,0.239,0.575,0.581c0,0.332-0.233,0.582-0.595,0.582
			C139.489,198.993,139.256,198.743,139.256,198.411z"/>
		<path fill="#231F20" stroke="#000000" stroke-width="0.25" stroke-miterlimit="10" d="M143.571,192.762
			c0.516-0.083,1.13-0.138,1.802-0.138c1.217,0,2.083,0.274,2.659,0.774c0.593,0.508,0.935,1.228,0.935,2.233
			c0,1.016-0.342,1.847-0.943,2.419c-0.623,0.582-1.637,0.896-2.912,0.896c-0.614,0-1.111-0.028-1.539-0.074L143.571,192.762
			L143.571,192.762z M144.418,198.264c0.215,0.027,0.526,0.037,0.857,0.037c1.821,0,2.796-0.96,2.796-2.641
			c0.009-1.468-0.867-2.4-2.659-2.4c-0.438,0-0.77,0.037-0.994,0.083V198.264z"/>
		<path fill="#231F20" stroke="#000000" stroke-width="0.25" stroke-miterlimit="10" d="M154.336,196.62
			c0,1.652-1.219,2.373-2.349,2.373c-1.266,0-2.26-0.888-2.26-2.299c0-1.486,1.043-2.363,2.338-2.363
			C153.419,194.331,154.336,195.264,154.336,196.62z M150.604,196.667c0,0.979,0.584,1.717,1.422,1.717
			c0.818,0,1.432-0.729,1.432-1.734c0-0.758-0.397-1.709-1.412-1.709C151.043,194.94,150.604,195.827,150.604,196.667z"/>
		<path fill="#231F20" stroke="#000000" stroke-width="0.25" stroke-miterlimit="10" d="M154.979,198.411
			c0-0.332,0.244-0.581,0.584-0.581c0.341,0,0.575,0.239,0.575,0.581c0,0.332-0.234,0.582-0.595,0.582
			C155.213,198.993,154.979,198.743,154.979,198.411z"/>
	</g>
	<g>
		<path stroke="#231F20" stroke-width="0.1448" stroke-miterlimit="10" d="M153.96,165.112v0.47h-0.908v2.366h-0.562v-2.366h-0.896
			v-0.47H153.96z M157.025,167.948l-0.104-1.668c-0.011-0.22-0.011-0.49-0.021-0.793h-0.031c-0.073,0.251-0.168,0.584-0.24,0.845
			l-0.512,1.575h-0.583l-0.511-1.616c-0.053-0.209-0.136-0.553-0.198-0.804h-0.031c0,0.262-0.011,0.531-0.021,0.793l-0.104,1.668
			h-0.541l0.208-2.836h0.846l0.489,1.387c0.072,0.219,0.114,0.428,0.188,0.72h0.01c0.073-0.251,0.136-0.501,0.198-0.698l0.49-1.407
			h0.812l0.219,2.836L157.025,167.948L157.025,167.948z"/>
	</g>
</g>
</svg>
