<?xml version="1.0" encoding="utf-8"?>
<!-- Generator: Adobe Illustrator 15.0.0, SVG Export Plug-In . SVG Version: 6.00 Build 0)  -->
<!DOCTYPE svg PUBLIC "-//W3C//DTD SVG 1.1//EN" "http://www.w3.org/Graphics/SVG/1.1/DTD/svg11.dtd">
<svg version="1.1" xmlns="http://www.w3.org/2000/svg" xmlns:xlink="http://www.w3.org/1999/xlink" x="0px" y="0px" width="792px"
	 height="792px" viewBox="0 0 792 792" enable-background="new 0 0 792 792" xml:space="preserve">
<g id="Layer_5">
</g>
<g id="Layer_1" display="none">
	
		<image display="inline" overflow="visible" width="363" height="363" xlink:href="DoLab Logo blk (bad).png"  transform="matrix(2.107 0 0 2.107 13.8203 12.8203)">
	</image>
</g>
<g id="Layer_2">
	<path fill="#231F20" stroke="#000000" stroke-miterlimit="10" d="M263.476,64.183c-8.891,1.407,3.542,21.428,3.542,21.428
		s10.775,13.519,16.08,11.123s1.989,1.198-6.962-14.545C267.184,66.446,272.367,62.775,263.476,64.183z"/>
	<path fill="#231F20" stroke="#000000" stroke-miterlimit="10" d="M341.042,150.37c1.357-3.401,0.194-27.209,0.194-27.209
		s1.938-7.203,6.784-8.603c4.846-1.401,43.417-14.605,43.417-14.605s3.876-3.201,6.783,4.602c2.907,7.802,1.115,29.36,2.325,33.411
		c0.582,1.5,30.237,11.003,33.338,14.405c5.282,2.401,12.647-14.755,25.197-25.609c3.393-2.5,3.684-2,5.427-1
		c0.783,0.449,6.058,8.903,12.959,12.286c11.415,4.97,15.922,15.724,15.922,15.724s0.969,4.401-0.389,6.202
		c-1.356,1.8-21.272,15.305-21.126,15.805c4.748,8.503,24.712,14.455,33.144,35.812c5.475,1.851,28.201-7.252,28.686-6.002
		c4.846,6.853,2.035,44.315,2.713,49.417c-5.522,0.05-18.993,5.002-18.993,5.002s-8.48,39.163-23.841,54.418
		c2.326,8.653,28.541,19.407,29.268,21.808c1.308,4.751-28.734,30.66-30.431,30.41c-9.449,0.8-15.603-14.405-18.413-14.005
		c-2.811,0.4-28.88,32.211-36.245,34.812c2.132,10.604,5.814,31.561,4.846,33.211s-49.812,16.056-53.495,15.205
		c-4.119-6.552-1.745-26.409-1.745-26.409s-50.394,5.702-65.706-12.403c-5.718,1.501-15.167,29.71-17.444,30.41
		c-6.622-2.999-30.429-17.738-31.206-19.406c0.259-9.035,11.92-26.541,11.242-28.81c-2.778-4.899-27.49-10.833-41.284-37.213
		c-2.907-2.295-22.581,7.041-26.554,5.602c-3.974-1.438-3.683-40.507-3.295-42.614c0.387-2.107,31.593-13.004,31.593-13.004
		S240.448,267.81,265.451,238c-10.238-1.894-16.991-6.328-18.413-8.403s15.766-44.176,17.638-44.815
		c1.872-0.64,23.065,12.604,23.065,12.604S309.061,169.977,341.042,150.37z M381.357,337.167
		c45.226-10.27,94.198-39.88,73.313-94.691c-14.683-45.874-73.443-53.894-121.14-8.128
		C280.311,312.893,315.845,346.904,381.357,337.167z"/>
	<path fill="#231F20" stroke="#000000" stroke-miterlimit="10" d="M466.834,59.839c-3.974-3.901,4.651-8.803,12.21-17.806
		c7.56-9.003,14.344-21.107,17.929-16.806c3.586,4.301-2.714,9.604-11.146,17.406C477.396,50.436,470.807,63.74,466.834,59.839z"/>
	<path fill="#231F20" stroke="#000000" stroke-miterlimit="10" d="M574.6,132.264c-1.454-3.101,19.284-19.606,19.284-19.606
		s18.123-16.506,24.616-11.604c6.493,4.901-14.957,14.305-19.964,17.606C593.529,121.96,576.053,135.365,574.6,132.264z"/>
	<path fill="#231F20" stroke="#000000" stroke-miterlimit="10" d="M579.583,300.348c4.803-4.166,26.307,3.664,40.644,7.687
		c11.83,2.801,34.03,15.804,29.576,20.042c-12.317-2.371-16.91-6.465-33.195-13.29C605.473,310.19,580.906,313.279,579.583,300.348z
		"/>
	<path fill="#231F20" stroke="#000000" stroke-miterlimit="10" d="M146.857,244.339c7.071-3.293,9.511,2.003,20.9,8.785
		c7.634,4.328,24.592,2.972,23.278,12.337c-1.501,2.196-21.651-3.359-26.469-5.038C159.748,258.743,143.416,253.318,146.857,244.339
		z"/>
	<path fill="#231F20" stroke="#000000" stroke-miterlimit="10" d="M318.493,442.049c8.345,2.297,9.304,9.226,27.91,9.763
		c15.701,1.464,104.127-3.158,105.056,3.445c2.503,12.922-44.322,1.531-107.93,4.594
		C327.58,459.946,309.777,448.652,318.493,442.049z"/>
	<path fill="#231F20" stroke="#000000" stroke-miterlimit="10" d="M315.433,470.283c3.709-8.039,6.549,7.937,28.095,10.241
		c28.977,7.764,81.891-8.242,93.742-0.479c0.812,8.708-33.688,10.908-82.708,10.624C343.755,489.82,318.623,491.154,315.433,470.283
		z"/>
	<path fill="#231F20" stroke="#000000" stroke-miterlimit="10" d="M318.686,504.096c1.874-7.068,2.586,4.401,38.054,8.27
		s81.34-5.735,81.857-1.267c4.588,11.937-61.441,9.404-70.422,9.604C359.194,520.902,319.784,520.835,318.686,504.096z"/>
	<path fill="#231F20" stroke="#000000" stroke-miterlimit="10" d="M332.188,536.576c13.632-4.469,71.004-3.067,91.226-1.333
		c-13.888,52.01-28.619,65.081-52.143,67.444C347.992,605.026,330.832,537.775,332.188,536.576z"/>
</g>
<g id="Font" display="none">
	<text transform="matrix(1 0 0 1 262.1543 713.2812)" display="inline"><tspan x="0" y="0" stroke="#231F20" stroke-miterlimit="10" font-family="'BauhausModern-Regular'" font-size="72">DoLab</tspan><tspan x="223.125" y="0" stroke="#231F20" stroke-miterlimit="10" font-family="'MyriadPro-Regular'" font-size="72">™</tspan></text>
	<text transform="matrix(1 0 0 1 284.9492 737.8125)" display="inline" font-family="'MyriadPro-Regular'" font-size="21">Learn. Create. Repair. Do.</text>
</g>
<g id="Text_Outline_TM" display="none">
	<g display="inline">
		<path stroke="#231F20" stroke-width="1.7506" stroke-miterlimit="10" d="M166.885,620.314h41.469
			c13.025,0.084,24.139,4.747,33.339,13.992c9.202,9.243,13.803,20.376,13.803,33.401s-4.601,24.159-13.803,33.401
			c-9.201,9.245-20.314,13.95-33.339,14.118h-41.469V620.314z M178.734,703.379h29.243c9.832,0,18.233-3.485,25.209-10.462
			c6.975-6.974,10.462-15.379,10.462-25.209c0-9.832-3.487-18.214-10.462-25.146c-6.976-6.932-15.377-10.399-25.209-10.399h-29.243
			V703.379z"/>
		<path stroke="#231F20" stroke-width="1.7506" stroke-miterlimit="10" d="M297.342,715.228c-8.741,0-16.156-3.067-22.247-9.202
			c-6.094-6.132-9.139-13.528-9.139-22.184c0-8.654,3.045-16.072,9.139-22.247c6.091-6.177,13.506-9.265,22.247-9.265
			c8.653,0,16.027,3.088,22.121,9.265c6.092,6.175,9.139,13.593,9.139,22.247c0,8.655-3.047,16.052-9.139,22.184
			C313.369,712.16,305.996,715.228,297.342,715.228z M283.54,697.581c3.823,3.78,8.423,5.672,13.803,5.672
			c5.376,0,9.977-1.892,13.802-5.672c3.822-3.782,5.735-8.36,5.735-13.739c0-5.377-1.913-9.958-5.735-13.74
			c-3.825-3.779-8.426-5.67-13.802-5.67c-5.464,0-10.084,1.891-13.866,5.67c-3.781,3.782-5.672,8.363-5.672,13.74
			C277.805,689.221,279.715,693.799,283.54,697.581z"/>
		<path stroke="#231F20" stroke-width="1.7506" stroke-miterlimit="10" d="M397.296,703.379v11.849h-26.471
			c-8.656,0-16.071-3.046-22.247-9.139c-6.177-6.091-9.265-13.507-9.265-22.247v-63.149h12.101v63.149
			c0,5.462,1.89,10.083,5.671,13.865c3.782,3.781,8.361,5.672,13.739,5.672H397.296z"/>
		<path stroke="#231F20" stroke-width="1.7506" stroke-miterlimit="10" d="M471.03,683.715v31.639h-11.847v-6.808
			c-5.883,4.539-12.438,6.808-19.664,6.808c-8.655,0-16.07-3.089-22.247-9.265c-6.175-6.177-9.265-13.633-9.265-22.374
			c0-8.737,3.09-16.196,9.265-22.374c6.177-6.174,13.592-9.264,22.247-9.264c8.654,0,16.072,3.09,22.247,9.264
			C467.943,667.519,471.03,674.978,471.03,683.715z M425.594,697.581c3.821,3.865,8.464,5.798,13.926,5.798
			c5.463,0,10.104-1.933,13.928-5.798c3.823-3.864,5.736-8.487,5.736-13.866c0-5.376-1.934-10-5.798-13.864
			c-3.866-3.864-8.489-5.799-13.866-5.799c-5.379,0-10,1.935-13.865,5.799c-3.864,3.864-5.797,8.488-5.797,13.864
			C419.857,689.094,421.767,693.717,425.594,697.581z"/>
		<path stroke="#231F20" stroke-width="1.7506" stroke-miterlimit="10" d="M483.635,620.818l11.849-0.126v38.065
			c6.051-4.621,12.605-6.932,19.663-6.932c8.739-0.084,16.196,2.942,22.373,9.074c6.177,6.136,9.306,13.529,9.392,22.185
			c0.081,8.741-2.943,16.24-9.076,22.499c-6.135,6.262-13.53,9.435-22.185,9.517c-8.655,0.086-16.093-2.94-22.311-9.075
			c-6.22-6.132-9.37-13.569-9.452-22.311L483.635,620.818z M515.272,663.8c-5.464,0.086-10.105,2.061-13.928,5.924
			c-3.825,3.867-5.693,8.488-5.609,13.865c0.083,5.379,2.058,10.001,5.926,13.864c3.863,3.868,8.484,5.759,13.864,5.674
			c5.377-0.083,9.998-2.079,13.865-5.987c3.863-3.909,5.755-8.551,5.67-13.929c-0.083-5.46-2.06-10.083-5.924-13.865
			C525.271,665.564,520.649,663.719,515.272,663.8z"/>
		<path stroke="#231F20" stroke-width="1.7506" stroke-miterlimit="10" d="M583.844,630.265v5.672h-10.966v28.616h-6.808v-28.616
			h-10.841v-5.672H583.844z M620.904,664.553l-1.26-20.17c-0.126-2.646-0.126-5.925-0.252-9.581h-0.379
			c-0.883,3.026-2.016,7.061-2.899,10.211l-6.177,19.035h-7.06l-6.176-19.539c-0.63-2.521-1.639-6.681-2.396-9.707h-0.378
			c0,3.152-0.126,6.431-0.25,9.581l-1.262,20.17h-6.555l2.521-34.288h10.21l5.926,16.766c0.883,2.646,1.387,5.168,2.269,8.697h0.126
			c0.883-3.024,1.639-6.051,2.396-8.445l5.925-17.018h9.833l2.646,34.288H620.904z"/>
	</g>
	<text transform="matrix(1 0 0 1 284.9492 737.8125)" display="inline" font-family="'MyriadPro-Regular'" font-size="21">Learn. Create. Repair. Do.</text>
</g>
<g id="Text_Outline">
	<g>
		<path fill="#231F20" stroke="#000000" stroke-miterlimit="10" d="M195.341,620.276h43.955c13.805,0.084,25.585,4.77,35.337,14.055
			c9.753,9.287,14.63,20.472,14.63,33.557c0,13.086-4.876,24.271-14.63,33.555c-9.752,9.288-21.532,14.015-35.337,14.184h-43.955
			V620.276z M207.899,703.724h30.996c10.422,0,19.327-3.502,26.72-10.511c7.392-7.006,11.089-15.449,11.089-25.325
			c0-9.877-3.697-18.297-11.089-25.262c-7.394-6.965-16.298-10.448-26.72-10.448h-30.996V703.724z"/>
		<path fill="#231F20" stroke="#000000" stroke-miterlimit="10" d="M333.617,715.626c-9.265,0-17.124-3.082-23.581-9.244
			c-6.459-6.16-9.687-13.591-9.687-22.287c0-8.693,3.228-16.145,9.687-22.349c6.457-6.205,14.315-9.307,23.581-9.307
			c9.172,0,16.987,3.102,23.446,9.307c6.457,6.204,9.687,13.655,9.687,22.349c0,8.696-3.23,16.127-9.687,22.287
			C350.604,712.544,342.789,715.626,333.617,715.626z M318.987,697.898c4.052,3.798,8.928,5.698,14.63,5.698
			c5.699,0,10.575-1.9,14.628-5.698c4.053-3.8,6.079-8.399,6.079-13.804c0-5.399-2.026-10.003-6.079-13.802
			c-4.053-3.798-8.93-5.697-14.628-5.697c-5.791,0-10.688,1.899-14.697,5.697c-4.007,3.799-6.012,8.402-6.012,13.802
			C312.908,689.499,314.933,694.099,318.987,697.898z"/>
		<path fill="#231F20" stroke="#000000" stroke-miterlimit="10" d="M439.559,703.724v11.902h-28.056
			c-9.176,0-17.033-3.06-23.58-9.181c-6.547-6.119-9.82-13.569-9.82-22.351v-63.438h12.826v63.438
			c0,5.488,2.003,10.132,6.012,13.931s8.862,5.698,14.562,5.698H439.559z"/>
		<path fill="#231F20" stroke="#000000" stroke-miterlimit="10" d="M517.716,683.969v31.784h-12.558v-6.839
			c-6.235,4.56-13.183,6.839-20.843,6.839c-9.175,0-17.034-3.104-23.581-9.308c-6.545-6.205-9.819-13.695-9.819-22.477
			c0-8.778,3.274-16.271,9.819-22.477c6.547-6.203,14.406-9.308,23.581-9.308c9.173,0,17.035,3.104,23.58,9.308
			C514.442,667.697,517.716,675.19,517.716,683.969z M469.554,697.898c4.052,3.882,8.972,5.825,14.762,5.825
			c5.789,0,10.709-1.943,14.763-5.825c4.053-3.882,6.08-8.526,6.08-13.93c0-5.401-2.05-10.046-6.146-13.928
			c-4.098-3.883-8.998-5.827-14.697-5.827c-5.701,0-10.6,1.944-14.696,5.827c-4.097,3.882-6.145,8.526-6.145,13.928
			C463.475,689.372,465.498,694.017,469.554,697.898z"/>
		<path fill="#231F20" stroke="#000000" stroke-miterlimit="10" d="M531.074,620.783l12.56-0.127v38.24
			c6.413-4.642,13.36-6.964,20.842-6.964c9.263-0.085,17.168,2.956,23.715,9.116c6.547,6.165,9.862,13.593,9.952,22.286
			c0.088,8.782-3.118,16.316-9.62,22.604c-6.501,6.29-14.34,9.478-23.514,9.561c-9.174,0.085-17.058-2.955-23.647-9.117
			c-6.592-6.16-9.932-13.632-10.019-22.413L531.074,620.783z M564.609,663.962c-5.792,0.086-10.712,2.069-14.764,5.951
			c-4.053,3.884-6.034,8.527-5.945,13.929c0.089,5.403,2.183,10.048,6.28,13.93c4.096,3.884,8.993,5.783,14.696,5.698
			c5.699-0.083,10.598-2.089,14.696-6.015c4.095-3.927,6.1-8.59,6.011-13.993c-0.089-5.485-2.184-10.13-6.279-13.929
			C575.208,665.735,570.308,663.879,564.609,663.962z"/>
	</g>
	<g>
		<path fill="#231F20" stroke="#000000" stroke-miterlimit="10" d="M194.885,733.881h3.429v22.191h11.22v2.697h-14.649V733.881z"/>
		<path fill="#231F20" stroke="#000000" stroke-miterlimit="10" d="M214.563,750.424c0.078,4.396,3,6.203,6.468,6.203
			c2.455,0,3.974-0.407,5.221-0.922l0.623,2.325c-1.208,0.517-3.311,1.145-6.311,1.145c-5.805,0-9.272-3.655-9.272-9.047
			c0-5.391,3.35-9.601,8.843-9.601c6.195,0,7.792,5.097,7.792,8.383c0,0.664-0.039,1.145-0.117,1.514H214.563z M224.615,748.097
			c0.039-2.029-0.896-5.241-4.753-5.241c-3.506,0-4.987,2.989-5.26,5.241H224.615z"/>
		<path fill="#231F20" stroke="#000000" stroke-miterlimit="10" d="M245.423,754.486c0,1.551,0.078,3.063,0.273,4.283h-3.078
			l-0.273-2.254h-0.117c-1.052,1.404-3.078,2.659-5.766,2.659c-3.818,0-5.766-2.548-5.766-5.132c0-4.321,4.052-6.685,11.337-6.647
			v-0.37c0-1.439-0.428-4.135-4.285-4.099c-1.792,0-3.623,0.481-4.948,1.33l-0.779-2.178c1.558-0.924,3.857-1.552,6.233-1.552
			c5.766,0,7.168,3.729,7.168,7.273V754.486z M242.111,749.649c-3.74-0.075-7.986,0.553-7.986,4.023c0,2.143,1.48,3.102,3.194,3.102
			c2.494,0,4.091-1.477,4.637-2.989c0.117-0.371,0.155-0.739,0.155-1.034V749.649z"/>
		<path fill="#231F20" stroke="#000000" stroke-miterlimit="10" d="M250.959,746.472c0-2.104-0.04-3.911-0.156-5.574h3l0.156,3.545
			h0.117c0.857-2.402,2.961-3.915,5.26-3.915c0.351,0,0.623,0.037,0.934,0.074v3.064c-0.35-0.074-0.7-0.074-1.168-0.074
			c-2.416,0-4.129,1.699-4.597,4.137c-0.078,0.443-0.117,0.997-0.117,1.514v9.527h-3.428V746.472z"/>
		<path fill="#231F20" stroke="#000000" stroke-miterlimit="10" d="M263.856,745.734c0-1.884-0.039-3.361-0.156-4.837h3.038
			l0.195,2.953h0.078c0.936-1.662,3.117-3.323,6.234-3.323c2.61,0,6.662,1.478,6.662,7.607v10.635h-3.429v-10.302
			c0-2.882-1.129-5.282-4.364-5.282c-2.22,0-3.974,1.515-4.597,3.324c-0.156,0.405-0.234,0.959-0.234,1.515v10.745h-3.428V745.734z"
			/>
		<path fill="#231F20" stroke="#000000" stroke-miterlimit="10" d="M284.664,756.849c0-1.329,0.975-2.325,2.338-2.325
			c1.364,0,2.299,0.958,2.299,2.325c0,1.329-0.935,2.326-2.376,2.326C285.599,759.175,284.664,758.178,284.664,756.849z"/>
		<path fill="#231F20" stroke="#000000" stroke-miterlimit="10" d="M320.237,757.993c-1.208,0.591-3.74,1.182-6.936,1.182
			c-7.402,0-12.934-4.431-12.934-12.627c0-7.83,5.571-13.075,13.713-13.075c3.234,0,5.337,0.667,6.234,1.109l-0.857,2.623
			c-1.247-0.591-3.078-1.034-5.26-1.034c-6.155,0-10.246,3.729-10.246,10.265c0,6.13,3.701,10.009,10.052,10.009
			c2.104,0,4.207-0.407,5.571-1.034L320.237,757.993z"/>
		<path fill="#231F20" stroke="#000000" stroke-miterlimit="10" d="M324.293,746.472c0-2.104-0.04-3.911-0.156-5.574h3l0.156,3.545
			h0.117c0.858-2.402,2.961-3.915,5.26-3.915c0.351,0,0.624,0.037,0.936,0.074v3.064c-0.351-0.074-0.702-0.074-1.169-0.074
			c-2.415,0-4.129,1.699-4.597,4.137c-0.078,0.443-0.117,0.997-0.117,1.514v9.527h-3.427V746.472z"/>
		<path fill="#231F20" stroke="#000000" stroke-miterlimit="10" d="M338.553,750.424c0.079,4.396,3,6.203,6.468,6.203
			c2.455,0,3.974-0.407,5.221-0.922l0.623,2.325c-1.208,0.517-3.312,1.145-6.312,1.145c-5.805,0-9.271-3.655-9.271-9.047
			c0-5.391,3.35-9.601,8.843-9.601c6.195,0,7.792,5.097,7.792,8.383c0,0.664-0.039,1.145-0.117,1.514H338.553z M348.605,748.097
			c0.039-2.029-0.896-5.241-4.753-5.241c-3.506,0-4.987,2.989-5.26,5.241H348.605z"/>
		<path fill="#231F20" stroke="#000000" stroke-miterlimit="10" d="M369.414,754.486c0,1.551,0.078,3.063,0.272,4.283h-3.078
			l-0.272-2.254h-0.117c-1.051,1.404-3.077,2.659-5.765,2.659c-3.819,0-5.767-2.548-5.767-5.132c0-4.321,4.052-6.685,11.337-6.647
			v-0.37c0-1.439-0.428-4.135-4.285-4.099c-1.792,0-3.623,0.481-4.948,1.33l-0.778-2.178c1.558-0.924,3.856-1.552,6.233-1.552
			c5.766,0,7.169,3.729,7.169,7.273V754.486z M366.102,749.649c-3.74-0.075-7.986,0.553-7.986,4.023c0,2.143,1.48,3.102,3.194,3.102
			c2.494,0,4.091-1.477,4.636-2.989c0.118-0.371,0.156-0.739,0.156-1.034V749.649z"/>
		<path fill="#231F20" stroke="#000000" stroke-miterlimit="10" d="M378.924,736.614v4.283h4.909v2.473h-4.909v9.639
			c0,2.216,0.662,3.47,2.57,3.47c0.936,0,1.481-0.072,1.987-0.22l0.156,2.473c-0.663,0.223-1.715,0.443-3.039,0.443
			c-1.597,0-2.883-0.516-3.702-1.366c-0.935-0.998-1.324-2.584-1.324-4.69v-9.748h-2.922v-2.473h2.922v-3.323L378.924,736.614z"/>
		<path fill="#231F20" stroke="#000000" stroke-miterlimit="10" d="M389.366,750.424c0.078,4.396,3,6.203,6.467,6.203
			c2.455,0,3.975-0.407,5.222-0.922l0.622,2.325c-1.206,0.517-3.312,1.145-6.311,1.145c-5.805,0-9.272-3.655-9.272-9.047
			c0-5.391,3.351-9.601,8.844-9.601c6.195,0,7.791,5.097,7.791,8.383c0,0.664-0.038,1.145-0.116,1.514H389.366z M399.418,748.097
			c0.038-2.029-0.897-5.241-4.753-5.241c-3.507,0-4.987,2.989-5.26,5.241H399.418z"/>
		<path fill="#231F20" stroke="#000000" stroke-miterlimit="10" d="M405.694,756.849c0-1.329,0.974-2.325,2.338-2.325
			s2.3,0.958,2.3,2.325c0,1.329-0.936,2.326-2.377,2.326C406.629,759.175,405.694,758.178,405.694,756.849z"/>
		<path fill="#231F20" stroke="#000000" stroke-miterlimit="10" d="M422.955,734.213c1.715-0.297,4.207-0.515,6.506-0.515
			c3.624,0,6.001,0.661,7.598,2.029c1.285,1.107,2.064,2.806,2.064,4.765c0,3.249-2.183,5.427-4.908,6.313v0.109
			c1.985,0.667,3.193,2.438,3.817,5.021c0.858,3.474,1.481,5.872,2.024,6.833h-3.504c-0.43-0.739-1.015-2.845-1.714-5.946
			c-0.78-3.434-2.222-4.727-5.299-4.837h-3.196v10.783h-3.389V734.213z M426.344,745.55h3.468c3.624,0,5.921-1.884,5.921-4.727
			c0-3.215-2.453-4.614-6.036-4.614c-1.639,0-2.768,0.109-3.353,0.258V745.55z"/>
		<path fill="#231F20" stroke="#000000" stroke-miterlimit="10" d="M445.867,750.424c0.077,4.396,3.001,6.203,6.468,6.203
			c2.454,0,3.974-0.407,5.221-0.922l0.623,2.325c-1.208,0.517-3.313,1.145-6.312,1.145c-5.805,0-9.272-3.655-9.272-9.047
			c0-5.391,3.35-9.601,8.843-9.601c6.195,0,7.792,5.097,7.792,8.383c0,0.664-0.039,1.145-0.117,1.514H445.867z M455.918,748.097
			c0.038-2.029-0.896-5.241-4.753-5.241c-3.506,0-4.986,2.989-5.259,5.241H455.918z"/>
		<path fill="#231F20" stroke="#000000" stroke-miterlimit="10" d="M463.479,746.731c0-2.289-0.076-4.137-0.155-5.834h3.041
			l0.194,3.063h0.078c1.362-2.177,3.623-3.434,6.7-3.434c4.597,0,8.026,3.657,8.026,9.047c0,6.427-4.171,9.601-8.609,9.601
			c-2.494,0-4.675-1.034-5.806-2.807h-0.078v9.711h-3.392V746.731z M466.871,751.493c0,0.481,0.037,0.925,0.155,1.33
			c0.623,2.254,2.688,3.804,5.144,3.804c3.622,0,5.728-2.807,5.728-6.905c0-3.546-1.988-6.609-5.609-6.609
			c-2.339,0-4.562,1.551-5.183,3.989c-0.117,0.404-0.234,0.885-0.234,1.291V751.493z"/>
		<path fill="#231F20" stroke="#000000" stroke-miterlimit="10" d="M498.899,754.486c0,1.551,0.075,3.063,0.272,4.283h-3.078
			l-0.273-2.254h-0.117c-1.053,1.404-3.077,2.659-5.767,2.659c-3.816,0-5.767-2.548-5.767-5.132c0-4.321,4.054-6.685,11.339-6.647
			v-0.37c0-1.439-0.43-4.135-4.285-4.099c-1.792,0-3.624,0.481-4.947,1.33l-0.779-2.178c1.559-0.924,3.856-1.552,6.233-1.552
			c5.767,0,7.169,3.729,7.169,7.273V754.486z M495.586,749.649c-3.739-0.075-7.986,0.553-7.986,4.023
			c0,2.143,1.482,3.102,3.195,3.102c2.494,0,4.09-1.477,4.636-2.989c0.116-0.371,0.155-0.739,0.155-1.034V749.649z"/>
		<path fill="#231F20" stroke="#000000" stroke-miterlimit="10" d="M508.253,735.875c0,1.107-0.819,1.993-2.182,1.993
			c-1.247,0-2.065-0.886-2.065-1.993c0-1.108,0.856-2.029,2.142-2.029C507.394,733.846,508.253,734.73,508.253,735.875z
			 M504.434,758.77v-17.872h3.428v17.872H504.434z"/>
		<path fill="#231F20" stroke="#000000" stroke-miterlimit="10" d="M513.551,746.472c0-2.104-0.036-3.911-0.156-5.574h3.002
			l0.156,3.545h0.116c0.858-2.402,2.96-3.915,5.261-3.915c0.35,0,0.623,0.037,0.935,0.074v3.064
			c-0.35-0.074-0.701-0.074-1.169-0.074c-2.416,0-4.13,1.699-4.598,4.137c-0.077,0.443-0.117,0.997-0.117,1.514v9.527h-3.43V746.472
			z"/>
		<path fill="#231F20" stroke="#000000" stroke-miterlimit="10" d="M523.412,756.849c0-1.329,0.973-2.325,2.336-2.325
			c1.364,0,2.3,0.958,2.3,2.325c0,1.329-0.936,2.326-2.377,2.326C524.347,759.175,523.412,758.178,523.412,756.849z"/>
		<path fill="#231F20" stroke="#000000" stroke-miterlimit="10" d="M540.672,734.249c2.064-0.333,4.52-0.551,7.208-0.551
			c4.868,0,8.335,1.105,10.636,3.102c2.374,2.029,3.739,4.909,3.739,8.935c0,4.062-1.365,7.384-3.778,9.676
			c-2.493,2.325-6.546,3.58-11.649,3.58c-2.455,0-4.441-0.111-6.155-0.296V734.249z M544.061,756.259
			c0.858,0.109,2.105,0.147,3.428,0.147c7.287,0,11.183-3.841,11.183-10.562c0.038-5.871-3.467-9.601-10.636-9.601
			c-1.754,0-3.078,0.147-3.975,0.332V756.259z"/>
		<path fill="#231F20" stroke="#000000" stroke-miterlimit="10" d="M583.728,749.685c0,6.611-4.87,9.49-9.389,9.49
			c-5.065,0-9.04-3.546-9.04-9.194c0-5.944,4.17-9.453,9.352-9.453C580.066,740.527,583.728,744.257,583.728,749.685z
			 M568.807,749.869c0,3.916,2.336,6.87,5.688,6.87c3.272,0,5.728-2.919,5.728-6.942c0-3.029-1.598-6.833-5.649-6.833
			C570.561,742.964,568.807,746.51,568.807,749.869z"/>
		<path fill="#231F20" stroke="#000000" stroke-miterlimit="10" d="M586.304,756.849c0-1.329,0.974-2.325,2.336-2.325
			c1.364,0,2.299,0.958,2.299,2.325c0,1.329-0.935,2.326-2.375,2.326C587.238,759.175,586.304,758.178,586.304,756.849z"/>
	</g>
	<g>
		<path stroke="#231F20" stroke-width="0.5793" stroke-miterlimit="10" d="M582.224,623.653v1.877h-3.628v9.466h-2.252v-9.466
			h-3.586v-1.877H582.224z M594.484,634.996l-0.417-6.672c-0.042-0.876-0.042-1.96-0.083-3.17h-0.125
			c-0.292,1.001-0.668,2.336-0.96,3.378l-2.043,6.298h-2.335l-2.044-6.464c-0.208-0.835-0.542-2.211-0.792-3.212h-0.125
			c0,1.043-0.042,2.127-0.084,3.17l-0.417,6.672h-2.168l0.834-11.343h3.378l1.96,5.547c0.292,0.875,0.458,1.709,0.75,2.877h0.042
			c0.292-1.001,0.542-2.002,0.792-2.794l1.96-5.63h3.253l0.876,11.343H594.484z"/>
	</g>
</g>
</svg>
